<svg id="Layer_1" data-name="Layer 1" xmlns="http://www.w3.org/2000/svg" xmlns:xlink="http://www.w3.org/1999/xlink" viewBox="0 0 512 512"><defs><linearGradient id="linear-gradient" x1="256" y1="539.96" x2="256" y2="-26.62" gradientUnits="userSpaceOnUse"><stop offset="0" stop-color="#231f20"/><stop offset="1" stop-color="#58595b"/></linearGradient></defs><title>music_note</title><path d="M366.24,268.55A120.65,120.65,0,0,1,416,279.24V153.55c0-42.75,3.63-41.2-34.29-35.07-54.89,8.89-101.25,25.08-143.86,9.67-34.4-12.49-29-25.36-29,24.38V336.85h-.14c.11,1.69.14,3.35.14,5.08a92.3,92.3,0,1,1-92.29-92.53,91.43,91.43,0,0,1,25.75,3.67V79.89l-.07,0V41C141-24.36,166.18,4,200.57,20.55,286,61.65,348.91,25.53,429,19c59.86-4.87,58.7-4.9,58.7,59.55V389.91h0l0,.39C488.58,457.5,433.26,512,366.24,512s-121.5-54.5-121.5-121.71a121.63,121.63,0,0,1,121.5-121.74Z" fill-rule="evenodd" fill="url(#linear-gradient)"/></svg>